<svg width="512" height="512" viewBox="0 0 512 512" fill="none" xmlns="http://www.w3.org/2000/svg">
<g clip-path="url(#clip0_48_6)">
<rect x="2.5" y="2.5" width="507" height="507" rx="47.5" fill="url(#paint0_radial_48_6)" stroke="url(#paint1_linear_48_6)" stroke-width="5"/>
<g filter="url(#filter0_i_48_6)">
<path d="M215.206 349.8V280.6H345.406H360.406V265.6V234.4V219.4H345.406H215.206V162.2H355.806H370.806V147.2V116V101H355.806H163.406H148.406V116V195.6C148.406 209.544 150.328 223.693 159.998 234.139C166.633 241.308 175.413 245.119 185.206 247.148V254.052C174.418 257.135 165.591 262.537 159.197 270.701C150.615 281.659 148.406 295.117 148.406 307.6V396V411H163.406H359.406H374.406V396V364.8V349.8H359.406H215.206Z" stroke="url(#paint2_linear_48_6)" stroke-width="30"/>
</g>
</g>
<defs>
<filter id="filter0_i_48_6" x="133.406" y="86" width="256" height="350" filterUnits="userSpaceOnUse" color-interpolation-filters="sRGB">
<feFlood flood-opacity="0" result="BackgroundImageFix"/>
<feBlend mode="normal" in="SourceGraphic" in2="BackgroundImageFix" result="shape"/>
<feColorMatrix in="SourceAlpha" type="matrix" values="0 0 0 0 0 0 0 0 0 0 0 0 0 0 0 0 0 0 127 0" result="hardAlpha"/>
<feOffset dy="10"/>
<feGaussianBlur stdDeviation="5"/>
<feComposite in2="hardAlpha" operator="arithmetic" k2="-1" k3="1"/>
<feColorMatrix type="matrix" values="0 0 0 0 0 0 0 0 0 0 0 0 0 0 0 0 0 0 0.25 0"/>
<feBlend mode="normal" in2="shape" result="effect1_innerShadow_48_6"/>
</filter>
<radialGradient id="paint0_radial_48_6" cx="0" cy="0" r="1" gradientUnits="userSpaceOnUse" gradientTransform="translate(256) rotate(90) scale(512)">
<stop stop-color="white"/>
<stop offset="1" stop-color="#959595"/>
</radialGradient>
<linearGradient id="paint1_linear_48_6" x1="256" y1="0" x2="256" y2="512" gradientUnits="userSpaceOnUse">
<stop stop-color="white"/>
<stop offset="1" stop-color="#5E5E5E"/>
</linearGradient>
<linearGradient id="paint2_linear_48_6" x1="256.5" y1="84" x2="256.5" y2="416" gradientUnits="userSpaceOnUse">
<stop stop-color="#9A9A9A"/>
<stop offset="1" stop-color="#555555"/>
</linearGradient>
<clipPath id="clip0_48_6">
<rect width="512" height="512" fill="white"/>
</clipPath>
</defs>
</svg>
